<svg width="159" height="51" viewBox="0 0 159 51" fill="none" xmlns="http://www.w3.org/2000/svg">
<path fill-rule="evenodd" clip-rule="evenodd" d="M28.9914 4.86161C25.6373 4.37806 22.5263 6.70512 22.0427 10.0592L19.9028 24.9027C19.4192 28.2568 21.7463 31.3679 25.1004 31.8514C28.4545 32.335 31.5656 30.0079 32.0491 26.6538L34.1891 11.8104C34.6726 8.45622 32.3456 5.34517 28.9914 4.86161ZM10.8982 11.6342C7.54405 11.1506 4.433 13.4777 3.94944 16.8318L0.0635796 43.7857C-0.419975 47.1399 1.90709 50.2509 5.26121 50.7345C8.61534 51.218 11.7264 48.891 12.21 45.5368L16.0958 18.5829C16.5794 15.2288 14.2523 12.1177 10.8982 11.6342Z" fill="#B8B8B8"/>
<path d="M48.938 35.36C47.69 35.36 46.562 35.108 45.554 34.604C44.546 34.076 43.742 33.368 43.142 32.48C42.542 31.592 42.218 30.572 42.17 29.42V23.264C42.218 22.112 42.542 21.092 43.142 20.204C43.766 19.292 44.57 18.572 45.554 18.044C46.562 17.516 47.69 17.252 48.938 17.252C50.546 17.252 51.986 17.648 53.258 18.44C54.53 19.232 55.526 20.312 56.246 21.68C56.99 23.048 57.362 24.596 57.362 26.324C57.362 28.028 56.99 29.564 56.246 30.932C55.526 32.3 54.53 33.38 53.258 34.172C51.986 34.964 50.546 35.36 48.938 35.36ZM48.11 31.004C48.974 31.004 49.742 30.812 50.414 30.428C51.086 30.02 51.602 29.468 51.962 28.772C52.346 28.052 52.538 27.224 52.538 26.288C52.538 25.376 52.346 24.572 51.962 23.876C51.602 23.156 51.086 22.604 50.414 22.22C49.742 21.812 48.974 21.608 48.11 21.608C47.27 21.608 46.514 21.812 45.842 22.22C45.17 22.604 44.642 23.156 44.258 23.876C43.898 24.572 43.718 25.376 43.718 26.288C43.718 27.224 43.898 28.052 44.258 28.772C44.642 29.468 45.158 30.02 45.806 30.428C46.478 30.812 47.246 31.004 48.11 31.004ZM39.29 42.272V17.612H44.006V22.184L43.214 26.396L43.97 30.608V42.272H39.29ZM67.7261 35.36C66.1421 35.36 64.7141 34.964 63.4421 34.172C62.1701 33.38 61.1741 32.3 60.4541 30.932C59.7341 29.564 59.3741 28.028 59.3741 26.324C59.3741 24.596 59.7341 23.048 60.4541 21.68C61.1741 20.312 62.1701 19.232 63.4421 18.44C64.7141 17.648 66.1421 17.252 67.7261 17.252C68.9741 17.252 70.0901 17.504 71.0741 18.008C72.0581 18.512 72.8381 19.22 73.4141 20.132C74.0141 21.02 74.3381 22.028 74.3861 23.156V29.42C74.3381 30.572 74.0141 31.592 73.4141 32.48C72.8381 33.368 72.0581 34.076 71.0741 34.604C70.0901 35.108 68.9741 35.36 67.7261 35.36ZM68.5901 31.004C69.9101 31.004 70.9781 30.572 71.7941 29.708C72.6101 28.82 73.0181 27.68 73.0181 26.288C73.0181 25.376 72.8261 24.572 72.4421 23.876C72.0821 23.156 71.5661 22.604 70.8941 22.22C70.2461 21.812 69.4781 21.608 68.5901 21.608C67.7261 21.608 66.9581 21.812 66.2861 22.22C65.6381 22.604 65.1221 23.156 64.7381 23.876C64.3781 24.572 64.1981 25.376 64.1981 26.288C64.1981 27.224 64.3781 28.052 64.7381 28.772C65.1221 29.468 65.6381 30.02 66.2861 30.428C66.9581 30.812 67.7261 31.004 68.5901 31.004ZM72.7661 35V30.32L73.5221 26.072L72.7661 21.896V17.612H77.4461V35H72.7661ZM92.7061 35L85.9741 26.036L92.6701 17.612H98.1061L90.2581 27.116L90.4381 24.812L98.4661 35H92.7061ZM81.6181 35V8.972H86.3341V35H81.6181ZM108.145 35.36C106.321 35.36 104.701 34.976 103.285 34.208C101.869 33.416 100.741 32.336 99.9011 30.968C99.0851 29.6 98.6771 28.04 98.6771 26.288C98.6771 24.56 99.0731 23.024 99.8651 21.68C100.681 20.312 101.785 19.232 103.177 18.44C104.569 17.624 106.117 17.216 107.821 17.216C109.501 17.216 110.977 17.6 112.249 18.368C113.545 19.112 114.553 20.144 115.273 21.464C116.017 22.76 116.389 24.236 116.389 25.892C116.389 26.204 116.365 26.528 116.317 26.864C116.293 27.176 116.233 27.536 116.137 27.944L101.521 27.98V24.452L113.941 24.416L112.033 25.892C111.985 24.86 111.793 23.996 111.457 23.3C111.145 22.604 110.677 22.076 110.053 21.716C109.453 21.332 108.709 21.14 107.821 21.14C106.885 21.14 106.069 21.356 105.373 21.788C104.677 22.196 104.137 22.784 103.753 23.552C103.393 24.296 103.213 25.184 103.213 26.216C103.213 27.272 103.405 28.196 103.789 28.988C104.197 29.756 104.773 30.356 105.517 30.788C106.261 31.196 107.125 31.4 108.109 31.4C108.997 31.4 109.801 31.256 110.521 30.968C111.241 30.656 111.865 30.2 112.393 29.6L115.165 32.372C114.325 33.356 113.293 34.1 112.069 34.604C110.869 35.108 109.561 35.36 108.145 35.36ZM122.546 35.36C121.682 35.36 120.974 35.072 120.422 34.496C119.87 33.92 119.594 33.212 119.594 32.372C119.594 31.532 119.87 30.824 120.422 30.248C120.974 29.672 121.682 29.384 122.546 29.384C123.386 29.384 124.082 29.672 124.634 30.248C125.186 30.824 125.462 31.532 125.462 32.372C125.462 33.212 125.186 33.92 124.634 34.496C124.082 35.072 123.386 35.36 122.546 35.36ZM136.667 35.36C135.083 35.36 133.655 34.964 132.383 34.172C131.111 33.38 130.115 32.3 129.395 30.932C128.675 29.564 128.315 28.028 128.315 26.324C128.315 24.596 128.675 23.048 129.395 21.68C130.115 20.312 131.111 19.232 132.383 18.44C133.655 17.648 135.083 17.252 136.667 17.252C137.915 17.252 139.031 17.504 140.015 18.008C140.999 18.512 141.779 19.22 142.355 20.132C142.955 21.02 143.279 22.028 143.327 23.156V29.42C143.279 30.572 142.955 31.592 142.355 32.48C141.779 33.368 140.999 34.076 140.015 34.604C139.031 35.108 137.915 35.36 136.667 35.36ZM137.531 31.004C138.851 31.004 139.919 30.572 140.735 29.708C141.551 28.82 141.959 27.68 141.959 26.288C141.959 25.376 141.767 24.572 141.383 23.876C141.023 23.156 140.507 22.604 139.835 22.22C139.187 21.812 138.419 21.608 137.531 21.608C136.667 21.608 135.899 21.812 135.227 22.22C134.579 22.604 134.063 23.156 133.679 23.876C133.319 24.572 133.139 25.376 133.139 26.288C133.139 27.224 133.319 28.052 133.679 28.772C134.063 29.468 134.579 30.02 135.227 30.428C135.899 30.812 136.667 31.004 137.531 31.004ZM141.707 35V30.32L142.463 26.072L141.707 21.896V17.612H146.387V35H141.707ZM150.56 35V17.612H155.312V35H150.56ZM152.936 14.804C152.168 14.804 151.532 14.552 151.028 14.048C150.524 13.52 150.272 12.872 150.272 12.104C150.272 11.36 150.524 10.724 151.028 10.196C151.532 9.668 152.168 9.404 152.936 9.404C153.728 9.404 154.364 9.668 154.844 10.196C155.348 10.724 155.6 11.36 155.6 12.104C155.6 12.872 155.348 13.52 154.844 14.048C154.364 14.552 153.728 14.804 152.936 14.804Z" fill="#B8B8B8"/>
</svg>
