<svg width="1376" height="1006" viewBox="0 0 1376 1006" fill="none" xmlns="http://www.w3.org/2000/svg">
<path fill-rule="evenodd" clip-rule="evenodd" d="M71.5158 0V60.1069H0.905263V0H0V1006H0.905263V945.893H71.5158V1006H72.4211V945.893H144.842V1006H145.747V945.893H216.358V1006H217.263V945.893H289.684V1006H290.589V945.893H361.2V1006H362.105V945.893H434.526V1006H435.432V945.893H506.042V1006H506.947V945.893H579.368V1006H580.274V945.893H650.884V1006H651.789V945.893H724.211V1006H725.116V945.893H795.726V1006H796.632V945.893H869.053V1006H869.958V945.893H940.568V1006H941.474V945.893H1013.89V1006H1014.8V945.893H1085.41V1006H1086.32V945.893H1158.74V1006H1159.64V945.893H1230.25V1006H1231.16V945.893H1303.58V1006H1304.48V945.893H1375.09V1006H1376V0H1375.09V60.1069H1304.48V0H1303.58V60.1069H1231.16V0H1230.25V60.1069H1159.64V0H1158.74V60.1069H1086.32V0H1085.41V60.1069H1014.8V0H1013.89V60.1069H941.474V0H940.568V60.1069H869.958V0H869.053V60.1069H796.632V0H795.726V60.1069H725.116V0H724.211V60.1069H651.789V0H650.884V60.1069H580.274V0H579.368V60.1069H506.947V0H506.042V60.1069H435.432V0H434.526V60.1069H362.105V0H361.2V60.1069H290.589V0H289.684V60.1069H217.263V0H216.358V60.1069H145.747V0H144.842V60.1069H72.4211V0H71.5158ZM1375.09 819.352V692.811H1304.48V819.352H1375.09ZM1303.58 819.352V692.811H1231.16V819.352H1303.58ZM1231.16 820.934H1303.58V944.311H1231.16V820.934ZM1230.25 819.352V692.811H1159.64V819.352H1230.25ZM1159.64 820.934H1230.25V944.311H1159.64V820.934ZM1158.74 819.352V692.811H1086.32V819.352H1158.74ZM1086.32 820.934H1158.74V944.311H1086.32V820.934ZM1085.41 819.352V692.811H1014.8V819.352H1085.41ZM1014.8 820.934H1085.41V944.311H1014.8V820.934ZM1013.89 819.352V692.811H941.474V819.352H1013.89ZM941.474 820.934H1013.89V944.311H941.474V820.934ZM940.568 819.352V692.811H869.958V819.352H940.568ZM869.958 820.934H940.568V944.311H869.958V820.934ZM869.053 819.352V692.811H796.632V819.352H869.053ZM796.632 820.934H869.053V944.311H796.632V820.934ZM795.726 819.352V692.811H725.116V819.352H795.726ZM725.116 820.934H795.726V944.311H725.116V820.934ZM724.211 819.352V692.811H651.789V819.352H724.211ZM651.789 820.934H724.211V944.311H651.789V820.934ZM650.884 819.352V692.811H580.274V819.352H650.884ZM580.274 820.934H650.884V944.311H580.274V820.934ZM579.368 819.352V692.811H506.947V819.352H579.368ZM506.947 820.934H579.368V944.311H506.947V820.934ZM506.042 819.352V692.811H435.432V819.352H506.042ZM435.432 820.934H506.042V944.311H435.432V820.934ZM434.526 819.352V692.811H362.105V819.352H434.526ZM362.105 820.934H434.526V944.311H362.105V820.934ZM361.2 819.352V692.811H290.589V819.352H361.2ZM290.589 820.934H361.2V944.311H290.589V820.934ZM289.684 819.352V692.811H217.263V819.352H289.684ZM217.263 820.934H289.684V944.311H217.263V820.934ZM216.358 819.352V692.811H145.747V819.352H216.358ZM145.747 820.934H216.358V944.311H145.747V820.934ZM144.842 819.352V692.811H72.4211V819.352H144.842ZM72.4211 820.934H144.842V944.311H72.4211V820.934ZM71.5158 819.352V692.811H0.905263V819.352H71.5158ZM0.905263 820.934H71.5158V944.311H0.90526L0.905263 820.934ZM1304.48 944.311V820.934H1375.09V944.311H1304.48ZM0.90526 691.23L0.905263 567.852H71.5158V691.23H0.90526ZM0.905263 566.27H71.5158V439.73H0.905263V566.27ZM72.4211 691.23V567.852H144.842V691.23H72.4211ZM72.4211 566.27H144.842V439.73H72.4211V566.27ZM145.747 691.23V567.852H216.358V691.23H145.747ZM145.747 566.27H216.358V439.73H145.747V566.27ZM217.263 691.23V567.852H289.684V691.23H217.263ZM217.263 566.27H289.684V439.73H217.263V566.27ZM290.589 691.23V567.852H361.2V691.23H290.589ZM290.589 566.27H361.2V439.73H290.589V566.27ZM362.105 691.23V567.852H434.526V691.23H362.105ZM362.105 566.27H434.526V439.73H362.105V566.27ZM435.432 691.23V567.852H506.042V691.23H435.432ZM435.432 566.27H506.042V439.73H435.432V566.27ZM506.947 691.23V567.852H579.368V691.23H506.947ZM506.947 566.27H579.368V439.73H506.947V566.27ZM580.274 691.23V567.852H650.884V691.23H580.274ZM580.274 566.27H650.884V439.73H580.274V566.27ZM651.789 691.23V567.852H724.211V691.23H651.789ZM651.789 566.27H724.211V439.73H651.789V566.27ZM725.116 691.23V567.852H795.726V691.23H725.116ZM725.116 566.27H795.726V439.73H725.116V566.27ZM796.632 691.23V567.852H869.053V691.23H796.632ZM796.632 566.27H869.053V439.73H796.632V566.27ZM869.958 691.23V567.852H940.568V691.23H869.958ZM869.958 566.27H940.568V439.73H869.958V566.27ZM941.474 691.23V567.852H1013.89V691.23H941.474ZM941.474 566.27H1013.89V439.73H941.474V566.27ZM1014.8 691.23V567.852H1085.41V691.23H1014.8ZM1014.8 566.27H1085.41V439.73H1014.8V566.27ZM1086.32 691.23V567.852H1158.74V691.23H1086.32ZM1086.32 566.27H1158.74V439.73H1086.32V566.27ZM1159.64 691.23V567.852H1230.25V691.23H1159.64ZM1159.64 566.27H1230.25V439.73H1159.64V566.27ZM1231.16 691.23V567.852H1303.58V691.23H1231.16ZM1231.16 566.27H1303.58V439.73H1231.16V566.27ZM1304.48 691.23V567.852H1375.09V691.23H1304.48ZM1304.48 566.27H1375.09V439.73H1304.48V566.27ZM1375.09 313.189V186.648H1304.48V313.189H1375.09ZM1303.58 313.189V186.648H1231.16V313.189H1303.58ZM1231.16 314.77H1303.58V438.148H1231.16V314.77ZM1230.25 313.189V186.648H1159.64V313.189H1230.25ZM1159.64 314.77H1230.25V438.148H1159.64V314.77ZM1158.74 313.189V186.648H1086.32V313.189H1158.74ZM1086.32 314.77H1158.74V438.148H1086.32V314.77ZM1085.41 313.189V186.648H1014.8V313.189H1085.41ZM1014.8 314.77H1085.41V438.148H1014.8V314.77ZM1013.89 313.189V186.648H941.474V313.189H1013.89ZM941.474 314.77H1013.89V438.148H941.474V314.77ZM940.568 313.189V186.648H869.958V313.189H940.568ZM869.958 314.77H940.568V438.148H869.958V314.77ZM869.053 313.189V186.648H796.632V313.189H869.053ZM796.632 314.77H869.053V438.148H796.632V314.77ZM795.726 313.189V186.648H725.116V313.189H795.726ZM725.116 314.77H795.726V438.148H725.116V314.77ZM724.211 313.189V186.648H651.789V313.189H724.211ZM651.789 314.77H724.211V438.148H651.789V314.77ZM650.884 313.189V186.648H580.274V313.189H650.884ZM580.274 314.77H650.884V438.148H580.274V314.77ZM579.368 313.189V186.648H506.947V313.189H579.368ZM506.947 314.77H579.368V438.148H506.947V314.77ZM506.042 313.189V186.648H435.432V313.189H506.042ZM435.432 314.77H506.042V438.148H435.432V314.77ZM434.526 313.189V186.648H362.105V313.189H434.526ZM362.105 314.77H434.526V438.148H362.105V314.77ZM361.2 313.189V186.648H290.589V313.189H361.2ZM290.589 314.77H361.2V438.148H290.589V314.77ZM289.684 313.189V186.648H217.263V313.189H289.684ZM217.263 314.77H289.684V438.148H217.263V314.77ZM216.358 313.189V186.648H145.747V313.189H216.358ZM145.747 314.77H216.358V438.148H145.747V314.77ZM144.842 313.189V186.648H72.4211V313.189H144.842ZM72.4211 314.77H144.842V438.148H72.4211V314.77ZM71.5158 313.189V186.648H0.905263V313.189H71.5158ZM0.905263 314.77H71.5158V438.148H0.90526L0.905263 314.77ZM1304.48 438.148V314.77H1375.09V438.148H1304.48ZM0.905263 61.6887H71.5158V185.066H0.90526L0.905263 61.6887ZM144.842 185.066H72.4211V61.6887H144.842V185.066ZM145.747 185.066V61.6887H216.358V185.066H145.747ZM217.263 185.066V61.6887H289.684V185.066H217.263ZM290.589 185.066V61.6887H361.2V185.066H290.589ZM362.105 185.066V61.6887H434.526V185.066H362.105ZM435.432 185.066V61.6887H506.042V185.066H435.432ZM506.947 185.066V61.6887H579.368V185.066H506.947ZM580.274 185.066V61.6887H650.884V185.066H580.274ZM651.789 185.066V61.6887H724.211V185.066H651.789ZM725.116 185.066V61.6887H795.726V185.066H725.116ZM796.632 185.066V61.6887H869.053V185.066H796.632ZM869.958 185.066V61.6887H940.568V185.066H869.958ZM941.474 185.066V61.6887H1013.89V185.066H941.474ZM1014.8 185.066V61.6887H1085.41V185.066H1014.8ZM1086.32 185.066V61.6887H1158.74V185.066H1086.32ZM1159.64 185.066V61.6887H1230.25V185.066H1159.64ZM1231.16 185.066V61.6887H1303.58V185.066H1231.16ZM1304.48 185.066V61.6887H1375.09V185.066H1304.48Z" fill="url(#paint0_linear_151_150)"/>
<defs>
<linearGradient id="paint0_linear_151_150" x1="-197.523" y1="-98.6653" x2="1693.79" y2="367.687" gradientUnits="userSpaceOnUse">
<stop offset="0.149105" stop-color="#333333" stop-opacity="0"/>
<stop offset="0.506631" stop-color="#333333" stop-opacity="0.1"/>
<stop offset="0.857292" stop-color="#333333" stop-opacity="0"/>
</linearGradient>
</defs>
</svg>
